<svg width="2208" height="945" viewBox="0 0 2208 945" fill="none" xmlns="http://www.w3.org/2000/svg">
<path d="M951.697 81.3374C949.024 85.8814 944.943 89.284 941.376 93.076C865.197 174.045 788.961 254.963 712.848 335.995C709.645 339.404 708.073 339.727 704.819 335.988C683.107 311.049 661.195 286.281 639.188 261.6C636.28 258.337 636.161 256.432 639.119 252.915C686.252 196.845 733.213 140.631 780.148 84.3947C782.429 81.6614 784.684 80.1147 788.495 80.1241C841.347 80.2454 894.199 80.2014 947.052 80.2347C948.496 80.236 950.128 79.688 951.697 81.3374Z" fill="#F14724"/>
<path d="M249.936 75.4426C272.368 75.4426 294.8 75.404 317.233 75.452C350.579 75.5267 377.983 104.827 376.028 137.995C375.811 141.683 374.417 142.453 371.205 142.34C366.324 142.168 361.424 142.119 356.549 142.353C352.901 142.528 352.467 141.223 352.556 137.733C353.135 115.107 337.413 97.564 314.912 97.0066C277.189 96.072 239.444 95.8986 201.708 95.7426C192.635 95.7053 183.576 97.172 174.727 99.428C157.831 103.735 146.928 117.105 146.643 133.797C146.349 151.028 157.233 165.445 174.084 170.309C180.979 172.299 188.012 172.992 195.14 172.967C229.565 172.843 263.997 173.085 298.412 172.392C315.695 172.043 331.847 175.588 347.225 182.845C390.536 203.284 393.832 262.147 366.921 292.971C354.407 307.305 338.989 314.752 319.869 315.7C274.581 317.947 229.319 316.844 184.049 315.545C152.991 314.655 127.428 292.389 121.347 261.197C119.222 250.297 119.222 250.297 130.541 250.297C132.318 250.297 134.119 250.485 135.867 250.26C139.879 249.743 141.655 251.205 142.515 255.367C147.3 278.539 164.751 293.391 188.477 293.899C224.873 294.679 261.281 295.067 297.687 295.336C308.797 295.419 319.725 293.652 330.444 290.34C350.475 284.151 362.452 265.532 361.908 243.02C361.817 239.263 361.459 235.472 360.791 231.776C356.66 208.896 341.907 196.152 316.661 195.775C274.023 195.135 231.369 195.615 188.724 195.356C170.156 195.244 153.963 188.547 140.975 175.219C123.257 157.037 120.413 135.399 128.89 112.361C136.931 90.5067 158.983 75.8253 182.008 75.444C193.327 75.2573 204.645 75.0013 215.965 74.9093C227.288 74.816 238.611 74.8893 249.935 74.8893C249.935 75.0733 249.935 75.2586 249.936 75.4426Z" fill="white"/>
<path d="M2071.67 316.732C2062.87 316.732 2055.36 316.599 2047.87 316.788C2044.19 316.881 2042.97 314.036 2041.27 311.913C2008.47 271.056 1975.72 230.144 1942.96 189.245C1941.71 187.685 1940.31 186.231 1939.21 184.563C1937.51 181.931 1936.01 181.704 1933.44 183.799C1905.04 206.941 1876.56 230.001 1848.03 252.977C1845.4 255.089 1845.03 257.497 1845.04 260.52C1845.13 277.403 1844.96 294.287 1845.17 311.168C1845.21 315.311 1844.36 316.876 1839.79 316.86C1825.09 316.809 1825.09 317.021 1825.09 302.56C1825.09 230.587 1825.16 158.612 1824.96 86.6387C1824.95 80.9894 1825.99 79.0187 1832.11 79.272C1845.07 79.8067 1845.08 79.4174 1845.08 92.656C1845.08 135.529 1845.08 178.403 1845.08 221.276C1845.08 223.421 1845.08 225.568 1845.08 229.108C1857.23 219.319 1868.39 210.353 1879.53 201.355C1928.57 161.719 1977.63 122.085 2026.63 82.3974C2028.96 80.5027 2031.21 79.3041 2034.37 79.3747C2043.25 79.5721 2052.13 79.4427 2061.03 79.4427C2061.79 81.7854 2059.65 82.036 2058.67 82.8347C2024.81 110.187 1990.96 137.547 1956.95 164.692C1953.29 167.6 1953.01 169.199 1955.99 172.867C1993.68 219.485 2031.19 266.247 2068.75 312.973C2069.43 313.82 2070.08 314.691 2071.67 316.732Z" fill="white"/>
<path d="M797.908 268.12C821.564 355.877 844.945 442.62 868.327 529.363C867.781 529.665 867.237 529.967 866.693 530.269C859.592 521.936 852.448 513.64 845.399 505.264C804.252 456.371 763.127 407.459 721.996 358.552C719.929 356.093 717.293 354.361 720.972 350.448C745.739 324.104 770.208 297.481 794.785 270.96C795.5 270.188 796.343 269.536 797.908 268.12Z" fill="#F14724"/>
<path d="M973.201 195.417C973.201 158.095 973.277 120.772 973.108 83.4494C973.087 78.6534 973.695 76.4507 979.401 76.6161C993.179 77.0161 993.188 76.6827 993.188 90.5147C993.188 155.385 993.283 220.256 993.032 285.125C993.008 291.196 994.759 292.349 1000.45 292.325C1054.21 292.107 1107.97 292.271 1161.73 292.084C1167.44 292.065 1169.84 293.019 1169.65 299.555C1169.16 315.945 1169.52 315.997 1152.79 315.949C1095.04 315.784 1037.28 315.497 979.529 315.544C973.943 315.548 973.08 313.648 973.103 308.719C973.283 270.952 973.201 233.184 973.201 195.417Z" fill="white"/>
<path d="M437.396 198.021C471.439 178.668 505.479 159.309 539.524 139.961C546.587 135.948 553.669 131.972 561.971 129.107C546.64 152.388 531.309 175.669 515.979 198.952C514.097 204.725 510.899 209.628 506.299 213.607C497.957 225.861 489.579 238.093 481.28 250.379C466.532 272.216 451.833 294.085 437.115 315.941C434.941 313.591 435.104 310.623 435.097 307.769C435.023 274.087 435.028 240.404 435.1 206.721C435.107 203.673 434.784 200.431 437.396 198.021Z" fill="#F14724"/>
<path d="M635.099 66.872C646.675 77.5 657.545 87.5147 668.453 97.4881C682.691 110.507 696.951 123.501 711.223 136.481C713.243 138.32 715.091 139.476 712.297 142.719C686.683 172.46 661.287 202.388 635.099 233.115C635.099 177.484 635.099 122.875 635.099 66.872Z" fill="#F14724"/>
<path d="M437.396 198.021C437.259 212.893 437.027 227.764 437.005 242.636C436.971 267.068 437.072 291.501 437.116 315.937C431.488 317.644 425.724 316.333 420.037 316.715C418.093 316.844 417.212 315.921 417.277 313.973C417.329 312.423 417.272 310.868 417.272 309.315C417.271 235.22 417.331 161.125 417.153 87.032C417.139 81.316 418.081 78.9774 424.536 79.2694C437.239 79.8414 437.245 79.424 437.26 92.2093C437.3 127.48 437.351 162.751 437.396 198.021Z" fill="white"/>
<path d="M506.299 213.607C508.861 208.283 512.145 203.437 515.979 198.953C534.111 221.62 552.275 244.264 570.364 266.967C583.323 283.233 596.181 299.579 609.644 316.597C601.891 316.597 594.993 316.865 588.136 316.453C585.7 316.307 584.728 313.195 583.259 311.332C557.569 278.785 531.941 246.191 506.299 213.607Z" fill="white"/>
<path d="M618.829 66.6066C618.829 85.116 618.772 101.871 618.88 118.624C618.901 121.828 617.269 122.131 614.741 122.12C599.477 122.061 584.212 122.092 567.333 122.092C584.633 103.452 601.064 85.7493 618.829 66.6066Z" fill="#F14724"/>
<path fill-rule="evenodd" clip-rule="evenodd" d="M1785.73 315.414C1788.22 315.406 1790.71 315.397 1793.21 315.397C1763.62 284.728 1734.56 254.628 1705.29 224.3L1702.95 221.871C1704.77 221.871 1706.64 221.884 1708.54 221.898C1712.81 221.929 1717.22 221.96 1721.63 221.841C1735.31 221.472 1748.51 219.427 1760.29 211.56C1786.01 194.385 1797.85 159.633 1788.65 127.673C1779.63 96.2813 1756.01 78.7 1721.11 78.392C1659.81 77.8507 1598.51 77.948 1537.2 78.74C1531.51 78.8147 1530.33 80.4227 1530.35 85.836C1530.49 144.117 1530.48 202.399 1530.47 260.68C1530.47 274.383 1530.47 288.086 1530.47 301.789C1530.47 315.262 1530.47 315.262 1543.63 315.522C1543.88 315.527 1544.13 315.532 1544.39 315.537C1549.44 315.64 1550.61 314.199 1550.57 309.267C1550.44 295.463 1550.45 281.658 1550.45 267.853C1550.45 254.774 1550.46 241.696 1550.35 228.619C1550.29 223.591 1551.35 221.9 1556.79 221.941C1592.33 222.212 1627.88 222.211 1663.43 221.951C1669.24 221.908 1673.29 223.637 1677.36 227.727C1704.29 254.825 1731.43 281.727 1758.63 308.573C1759.25 309.195 1759.85 309.89 1760.45 310.59C1762.44 312.912 1764.48 315.303 1767.99 315.359C1773.89 315.453 1779.78 315.433 1785.73 315.414ZM1619.75 199.407C1626.9 199.415 1634.04 199.423 1641.19 199.423V199.631C1649.12 199.631 1657.06 199.555 1665 199.48C1683.03 199.309 1701.07 199.138 1719.08 199.849C1746.87 200.948 1765.88 180.2 1768.63 156.844C1772.73 121.849 1746.73 98.3226 1720.35 100.083C1711.03 100.705 1701.68 100.643 1692.32 100.582C1689.02 100.56 1685.72 100.538 1682.43 100.547C1677.93 100.558 1673.44 100.569 1668.95 100.581C1631.49 100.677 1594.03 100.773 1556.57 100.648C1551.64 100.632 1550.28 101.799 1550.33 106.836C1550.59 135.688 1550.6 164.545 1550.32 193.396C1550.28 198.512 1551.76 199.579 1556.63 199.537C1577.67 199.361 1598.71 199.384 1619.75 199.407Z" fill="white"/>
<path fill-rule="evenodd" clip-rule="evenodd" d="M1324.18 239.981C1332.64 239.974 1341.1 239.967 1349.56 239.967C1358.04 239.967 1366.53 239.974 1375.02 239.981C1400.96 240.003 1426.91 240.025 1452.85 239.843C1458.21 239.805 1460.05 240.903 1459.96 246.669C1459.75 258.413 1459.77 270.16 1459.78 281.908C1459.8 291.262 1459.81 300.617 1459.71 309.971C1459.67 314.336 1460.89 316.083 1465.25 315.432C1466.14 315.299 1467.06 315.334 1467.98 315.37C1468.4 315.386 1468.82 315.403 1469.24 315.403C1482.19 315.403 1482.23 315.403 1482.24 302.297C1482.33 256.541 1482.4 210.787 1482.45 165.031C1482.47 154.368 1482.07 143.745 1479.76 133.26C1473.29 103.839 1451.28 82.8334 1424.32 80.784C1379.55 77.3827 1334.75 77.2067 1289.91 79.6427C1273.79 80.5187 1258.01 82.352 1244.97 93.3427C1226.4 108.987 1218.04 129.385 1218.03 153.177C1218.03 165.651 1217.99 178.124 1217.95 190.598C1217.83 226.979 1217.7 263.361 1218.59 299.741C1218.78 307.76 1218.8 311.703 1220.78 313.643C1222.74 315.567 1226.63 315.522 1234.55 315.529C1239.17 315.533 1239.94 313.912 1239.91 309.809C1239.83 300.487 1239.84 291.165 1239.84 281.842C1239.86 270.063 1239.87 258.284 1239.7 246.507C1239.63 241.309 1240.98 239.805 1246.28 239.843C1272.24 240.024 1298.21 240.002 1324.18 239.981ZM1324.12 218.072C1332.57 218.079 1341.03 218.087 1349.49 218.087C1357.86 218.087 1366.22 218.081 1374.58 218.076C1401.08 218.058 1427.58 218.041 1454.07 218.199C1458.79 218.227 1459.97 216.924 1459.91 212.291C1459.77 201.273 1459.79 190.254 1459.81 179.235C1459.83 169.827 1459.85 160.42 1459.77 151.013C1459.52 120.931 1439.43 101.031 1409.4 100.991C1369.65 100.936 1329.92 100.933 1290.18 100.991C1260.23 101.035 1239.97 121.193 1239.85 151.037C1239.81 158.573 1239.83 166.109 1239.85 173.645C1239.87 186.315 1239.9 198.983 1239.7 211.649C1239.62 216.873 1241.01 218.251 1246.25 218.213C1272.21 218.028 1298.16 218.05 1324.12 218.072Z" fill="white"/>
<path d="M1922.19 571.284C1947.17 571.284 1972.16 571.241 1997.13 571.293C2034.33 571.372 2064.72 603.803 2062.68 640.888C2062.47 644.923 2061.05 645.943 2057.39 645.8C2051.95 645.589 2046.49 645.573 2041.07 645.804C2037.17 645.969 2036.4 644.801 2036.51 640.752C2037.16 615.444 2019.79 595.951 1994.71 595.315C1952.69 594.248 1910.64 594.072 1868.61 593.895C1858.25 593.851 1847.91 595.497 1837.84 598.137C1819.45 602.953 1807.56 617.857 1807.2 636.204C1806.84 655.099 1818.75 671.335 1836.99 676.741C1843.65 678.719 1850.48 679.823 1857.44 679.804C1897.52 679.697 1937.6 679.843 1977.67 679.327C2000.83 679.028 2022.52 683.96 2041.24 697.473C2069.45 717.852 2075.68 746.963 2069.48 779.317C2063.72 809.356 2039.77 833.039 2010.51 837.712C1993.21 840.476 1975.52 840.166 1957.97 840.251C1921.85 840.428 1885.76 839.933 1849.67 838.796C1814.25 837.679 1785.56 812.933 1778.95 777.492C1778.72 776.279 1778.67 775.011 1778.28 773.853C1776.21 767.716 1778.15 765.267 1784.75 765.937C1789.65 766.433 1795.17 764.76 1799.45 766.471C1804.41 768.456 1802.63 775.105 1804.25 779.568C1811.49 799.409 1830.2 813.991 1851.48 814.463C1893.27 815.39 1935.05 815.884 1976.84 816.16C1988.95 816.24 2000.96 814.386 2012.53 810.388C2034.83 802.693 2048.95 780.901 2046.84 757.271C2046.47 753.089 2046.39 748.844 2045.59 744.747C2040.61 719.472 2024.55 705.788 1996.64 705.308C1953.85 704.572 1911.04 704.816 1868.24 704.996C1852.81 705.061 1837.72 704.559 1823.28 698.073C1794.04 684.951 1779.21 658.412 1783.47 625.919C1786.93 599.452 1810.47 575.785 1839.16 572.048C1854.28 570.08 1869.77 570.907 1885.09 570.685C1897.45 570.508 1909.81 570.649 1922.19 570.649C1922.19 570.861 1922.19 571.072 1922.19 571.284Z" fill="#F14724"/>
<path d="M1590.21 572.771C1633.51 572.768 1676.8 572.883 1720.08 572.639C1726.17 572.604 1728.73 573.471 1728.47 580.513C1727.87 596.265 1728.31 596.283 1712.44 596.283C1635.51 596.283 1558.56 596.404 1481.63 596.088C1474.2 596.057 1472.79 598.187 1472.93 605.107C1473.4 627.115 1473.25 649.14 1473 671.155C1472.93 676.277 1473.64 678.367 1479.64 678.347C1552.63 678.107 1625.6 678.245 1698.57 678.085C1704.04 678.073 1706.28 678.972 1706.16 685.204C1705.81 703.417 1706.12 703.439 1688.27 703.42C1619.24 703.349 1550.23 703.344 1481.2 703.057C1475.05 703.032 1472.81 704.028 1472.91 710.948C1473.35 742.855 1473.29 774.773 1472.95 806.683C1472.88 813.069 1474.83 814.311 1480.83 814.295C1560.48 814.093 1640.15 814.241 1719.8 814.014C1726.53 813.995 1728.63 815.628 1728.44 822.565C1727.95 840.016 1728.29 840.027 1710.93 840.027C1626.81 840.027 1542.71 839.928 1458.6 840.208C1451.63 840.232 1450.69 837.927 1450.72 831.814C1450.91 748.197 1450.93 664.579 1450.67 580.963C1450.65 574.32 1452.48 572.624 1458.84 572.656C1502.63 572.879 1546.41 572.772 1590.21 572.771Z" fill="#F14724"/>
<path d="M1128.86 597.041C1134.76 592.86 1139.4 589.283 1144.32 586.137C1157.13 577.956 1171.69 576.733 1186.32 575.961C1240.95 573.073 1295.56 573.519 1350.15 577.019C1384.99 579.252 1414.85 609.576 1416.67 644.279C1419.93 707.087 1417.56 769.928 1418.03 832.753C1418.05 837.255 1416.89 838.604 1412.27 838.664C1392.93 838.915 1392.93 839.084 1392.93 819.792C1392.93 765.845 1392.2 711.885 1393.2 657.957C1393.84 623.207 1366.19 600.032 1337.95 600.267C1294.18 600.631 1250.37 600.529 1206.58 600.103C1194.99 599.991 1183.46 599.303 1171.97 602.311C1144.71 609.441 1129.97 627.631 1129.91 655.747C1129.8 714.147 1129.78 772.548 1130.02 830.948C1130.05 837.12 1128.48 839.347 1122.29 838.628C1117.18 838.035 1110.84 839.955 1107.13 837.549C1103.33 835.091 1105.85 828.392 1105.75 823.59C1104.77 775.611 1104.82 727.635 1105.81 679.649C1106.47 647.248 1106.35 614.828 1106.23 582.417C1106.21 576.731 1107.52 574.819 1113.51 574.951C1128.76 575.288 1128.77 574.981 1128.86 590.613C1128.87 592.311 1128.86 594.009 1128.86 597.041Z" fill="#F14724"/>
<path fill-rule="evenodd" clip-rule="evenodd" d="M690.989 785.793C674.528 768.78 657.984 751.679 641.237 734.369C643.723 734.369 646.143 734.386 648.517 734.403C653.615 734.439 658.502 734.473 663.385 734.335C678.621 733.903 693.281 731.496 706.357 722.676C734.852 703.455 747.943 664.532 737.532 629.152C727.296 594.368 701.376 574.955 662.889 574.581C595.139 573.925 527.381 573.965 459.632 575.116C450.073 575.277 450.073 575.384 450.073 585.219V823.402C450.073 838.384 450.078 838.384 464.736 838.674C465.008 838.679 465.285 838.685 465.567 838.691C471.169 838.804 472.527 837.26 472.472 831.736C472.349 819.27 472.368 806.802 472.386 794.335C472.412 777.369 472.437 760.403 472.105 743.444C471.951 735.54 474.459 734.377 481.525 734.44C520.107 734.784 558.693 734.767 597.276 734.455C604.225 734.397 609.147 736.281 614.109 741.276C639.877 767.203 665.876 792.9 691.875 818.597C697.356 824.014 702.838 829.432 708.317 834.852C708.643 835.175 708.954 835.528 709.267 835.883C710.408 837.18 711.578 838.509 713.625 838.509C720.637 838.506 727.649 838.507 734.382 838.507C736.964 838.508 739.505 838.508 741.989 838.508C724.993 820.94 708.036 803.413 690.989 785.793ZM548.82 709.34C556.949 709.353 565.078 709.367 573.207 709.367C573.207 709.405 573.206 709.444 573.206 709.483C573.206 709.521 573.205 709.56 573.205 709.599C582.846 709.599 592.487 709.599 602.128 709.599C621.41 709.599 640.691 709.6 659.973 709.599C690.404 709.597 710.477 692.855 715.013 662.824C720.777 624.651 692.04 596.551 661.005 598.713C650.66 599.434 640.256 599.36 629.856 599.286C626.155 599.26 622.455 599.233 618.759 599.243C610.09 599.265 601.422 599.292 592.754 599.319C555.441 599.437 518.128 599.554 480.819 599.285C473.375 599.232 472.084 601.415 472.169 608.288C472.56 639.433 472.511 670.588 472.192 701.735C472.131 707.751 473.407 709.607 479.759 709.532C502.777 709.263 525.798 709.301 548.82 709.34Z" fill="#F14724"/>
<path fill-rule="evenodd" clip-rule="evenodd" d="M120.456 677.428C120.449 687.408 120.443 697.389 120.443 707.369C120.443 717.732 120.454 728.095 120.466 738.458C120.501 769.421 120.536 800.385 120.258 831.345C120.196 838.192 122.329 839.348 128.554 839.325C143.008 839.275 157.463 839.456 171.919 839.636C183.184 839.777 194.45 839.918 205.716 839.949C212.282 839.968 218.849 839.998 225.415 840.028C263.623 840.203 301.834 840.378 340.011 838.247C348.88 837.75 357.8 837.014 366.081 833.24C393.649 820.672 408.513 798.056 411.207 769.089C415.171 726.465 414.288 683.545 410.856 640.88C408.387 610.173 384.095 584.441 353.849 578.395C338.369 575.301 322.577 575.057 306.834 574.813C303.294 574.758 299.756 574.703 296.224 574.616C261.508 573.759 226.792 574.252 192.076 574.745C170.646 575.049 149.215 575.353 127.784 575.34C121.201 575.336 120.283 577.597 120.316 583.392C120.496 614.737 120.476 646.082 120.456 677.428ZM142.724 682.453C142.717 690.62 142.711 698.787 142.711 706.953C142.711 715.056 142.716 723.158 142.721 731.261C142.737 756.565 142.753 781.869 142.613 807.173C142.587 811.992 143.317 814.092 148.915 814.062C177.623 813.908 206.333 813.854 235.042 813.8C268.435 813.736 301.828 813.673 335.22 813.453C364.965 813.257 387.231 791.089 387.591 761.287C388.024 725.411 388.083 689.52 387.553 653.647C387.104 623.091 364.424 601.111 333.877 601.027C304.168 600.944 274.459 600.946 244.75 600.948C212.848 600.95 180.945 600.952 149.043 600.849C143.711 600.832 142.559 602.396 142.593 607.477C142.765 632.468 142.745 657.461 142.724 682.453Z" fill="#F14724"/>
<path fill-rule="evenodd" clip-rule="evenodd" d="M777.941 691.124C777.965 696.288 777.989 701.452 777.989 706.615C777.617 729.113 777.804 751.596 779.427 774.064C781.928 808.707 811.507 837.356 846.249 838.572C884.061 839.895 921.883 840.637 959.712 840.175C962.108 840.145 964.508 840.125 966.909 840.105C981.093 839.987 995.348 839.869 1009.29 837.865C1044.67 832.785 1072.09 798.584 1072.1 760.427C1072.1 751.715 1072.15 743.003 1072.19 734.291C1072.33 704.933 1072.48 675.574 1071.07 646.213C1069.32 609.675 1040.76 579.909 1004.22 577.328C958.8 574.12 913.368 572.955 867.915 576.047C864.92 576.25 861.913 576.383 858.905 576.517C847.621 577.017 836.312 577.518 825.505 581.731C798.059 592.431 778.66 622.871 778.041 656.916C777.834 668.316 777.887 679.72 777.941 691.124ZM895.125 814.505C903.98 814.433 912.407 814.364 920.124 814.553C925.534 814.553 930.466 814.562 935.076 814.57C944.634 814.587 952.808 814.601 960.98 814.531C963.193 814.511 965.407 814.497 967.621 814.483C977.516 814.418 987.415 814.354 997.288 813.857C1024.46 812.488 1046.51 790.607 1046.93 763.5C1047.5 726.175 1047.58 688.825 1046.91 651.503C1046.39 622.672 1023.41 600.94 994.697 600.768C972.235 600.635 949.772 600.567 927.309 600.5C910.463 600.45 893.618 600.4 876.772 600.321C874.486 600.311 872.204 600.248 869.923 600.186C863.359 600.007 856.806 599.828 850.191 600.881C821.152 605.504 802.369 625.208 802.073 653.149C801.689 689.493 801.656 725.848 802.081 762.191C802.413 790.636 824.303 812.448 852.713 813.963C867.178 814.734 881.647 814.615 895.125 814.505Z" fill="#F14724"/>
</svg>
